<svg xmlns="http://www.w3.org/2000/svg" version="1.1" xmlns:xlink="http://www.w3.org/1999/xlink" xmlns:svgjs="http://svgjs.dev/svgjs" width="1000" height="1000" viewBox="0 0 1000 1000"><rect width="1000" height="1000" fill="#ffffff"></rect><g transform="matrix(0.7,0,0,0.7,149.57575757575756,282.1265587044535)"><svg viewBox="0 0 396 247" data-background-color="#ffffff" preserveAspectRatio="xMidYMid meet" height="623" width="1000" xmlns="http://www.w3.org/2000/svg" xmlns:xlink="http://www.w3.org/1999/xlink"><g id="tight-bounds" transform="matrix(1,0,0,1,0.2400000000000091,-0.09999999999999432)"><svg viewBox="0 0 395.52 247.2" height="247.2" width="395.52"><g><svg></svg></g><g><svg viewBox="0 0 395.52 247.2" height="247.2" width="395.52"><g transform="matrix(1,0,0,1,85.4800872180451,47.215199999999996)"><svg viewBox="0 0 224.55982556390978 152.7696" height="152.7696" width="224.55982556390978"><g><svg viewBox="0 0 224.55982556390978 152.7696" height="152.7696" width="224.55982556390978"><g><svg viewBox="0 0 224.55982556390978 152.7696" height="152.7696" width="224.55982556390978"><g><svg viewBox="0 0 224.55982556390978 152.7696" height="152.7696" width="224.55982556390978"><g id="textblocktransform"><svg viewBox="0 0 224.55982556390978 152.7696" height="152.7696" width="224.55982556390978" id="textblock"><g><svg viewBox="0 0 224.55982556390978 152.7696" height="152.7696" width="224.55982556390978"><g transform="matrix(1,0,0,1,0,0)"><svg width="224.55982556390978" viewBox="1.2999999523162842 -26.049999237060547 39.10000228881836 26.599998474121094" height="152.7696" data-palette-color="#ff0033"><path d="M39.75-5.7Q39.75-2.25 40.4-0.35L40.4-0.35Q39.3 0.55 38.1 0.55L38.1 0.55Q37.1 0.55 36.45-0.05 35.8-0.65 35.8-1.65L35.8-1.65 35.8-15.15Q35.8-19.45 34.75-21.65 33.7-23.85 31.05-23.85L31.05-23.85Q29.45-23.85 27.95-22.7 26.45-21.55 25.43-19.03 24.4-16.5 24.35-12.7L24.35-12.7 24.4-5.7Q24.4-2.1 25-0.35L25-0.35Q24 0.55 22.75 0.55L22.75 0.55Q21.75 0.55 21.15-0.05 20.55-0.65 20.55-1.65L20.55-1.65 20.5-15.15Q20.5-19.6 19.4-21.73 18.3-23.85 15.6-23.85L15.6-23.85Q13.95-23.85 12.48-22.63 11-21.4 10.05-18.68 9.1-15.95 9.1-11.75L9.1-11.75Q9.1-5.45 9.2-3.55 9.3-1.65 9.8-0.35L9.8-0.35Q8.75 0.55 7.5 0.55L7.5 0.55Q6.45 0.55 5.83-0.1 5.2-0.75 5.2-1.85L5.2-1.85 5.15-20.25Q5.15-21.55 4.7-22.23 4.25-22.9 3.4-22.9L3.4-22.9Q2.95-22.9 2.5-22.63 2.05-22.35 1.85-21.85L1.85-21.85Q1.3-22.55 1.3-23.4L1.3-23.4Q1.3-24.55 2.2-25.28 3.1-26 4.4-26L4.4-26Q6.45-26 7.58-24.58 8.7-23.15 8.7-20.45L8.7-20.45 8.7-19.65Q9.7-22.65 11.8-24.35 13.9-26.05 16.75-26.05L16.75-26.05Q22.85-26.05 24-19.55L24-19.55Q24.9-22.6 27.05-24.33 29.2-26.05 32.15-26.05L32.15-26.05Q36.05-26.05 37.9-23.43 39.75-20.8 39.75-15.65L39.75-15.65 39.75-5.7Z" opacity="1" transform="matrix(1,0,0,1,0,0)" fill="#ff0033" class="undefined-text-0" data-fill-palette-color="primary" id="text-0"></path></svg></g></svg></g></svg></g></svg></g></svg></g></svg></g></svg></g><g><path d="M235.88 0c68.262 0 123.6 55.338 123.6 123.6 0 68.262-55.338 123.6-123.6 123.6-30.402 0-58.24-10.976-79.768-29.183l11.147 0c19.26 14.022 42.974 22.294 68.621 22.295 64.458 0 116.712-52.254 116.711-116.712 0-64.458-52.254-116.712-116.711-116.712-25.647 0-49.361 8.272-68.621 22.295l-11.147 0c21.528-18.206 49.366-29.183 79.768-29.183z" fill="#ff0033" stroke="transparent" data-fill-palette-color="tertiary"></path></g></svg></g><defs></defs></svg><rect width="395.52" height="247.2" fill="none" stroke="none" visibility="hidden"></rect></g></svg></g></svg>